<?xml version="1.0" standalone="no"?>
<!DOCTYPE svg PUBLIC "-//W3C//DTD SVG 20010904//EN"
 "http://www.w3.org/TR/2001/REC-SVG-20010904/DTD/svg10.dtd">
<svg version="1.0" xmlns="http://www.w3.org/2000/svg"
 width="1045.000000pt" height="1280.000000pt" viewBox="0 0 1045.000000 1280.000000"
 preserveAspectRatio="xMidYMid meet">
<metadata>
Created by potrace 1.15, written by Peter Selinger 2001-2017
</metadata>
<g transform="translate(0.000000,1280.000000) scale(0.100000,-0.100000)"
fill="#000000" stroke="none">
<path d="M4645 12770 c-49 -17 -131 -51 -181 -75 -78 -38 -102 -56 -175 -133
-128 -135 -198 -268 -207 -392 -5 -79 21 -196 101 -445 30 -93 64 -201 76
-240 32 -106 70 -169 104 -173 19 -2 31 -12 39 -30 38 -93 68 -141 129 -207
38 -41 69 -79 69 -84 0 -15 -98 -243 -120 -279 -11 -18 -33 -40 -50 -50 -16
-10 -146 -47 -287 -82 -142 -35 -282 -72 -311 -83 -62 -24 -84 -52 -307 -392
-234 -357 -289 -420 -690 -784 -172 -156 -181 -163 -215 -158 -91 12 -449 170
-734 324 -360 194 -484 281 -696 488 -91 88 -190 182 -220 207 -49 41 -211
148 -225 148 -2 0 -17 -18 -31 -40 -21 -32 -26 -48 -21 -80 3 -22 4 -40 2 -40
-2 0 -59 29 -128 66 -250 130 -477 222 -517 209 -11 -4 -27 -19 -35 -35 -60
-116 57 -227 601 -565 250 -156 338 -221 564 -416 248 -214 505 -417 1022
-806 242 -183 359 -250 491 -284 79 -19 197 -7 271 30 177 88 480 369 723 671
161 201 176 216 190 198 12 -16 237 -535 305 -705 49 -124 82 -239 92 -328 44
-373 77 -678 85 -797 14 -192 14 -445 0 -526 -11 -59 -10 -68 11 -109 21 -42
23 -66 31 -286 11 -309 -3 -222 129 -842 141 -660 294 -1227 440 -1628 113
-310 121 -360 140 -827 15 -358 36 -660 70 -980 29 -271 49 -512 70 -825 15
-229 13 -222 58 -229 78 -14 72 -2 72 -164 0 -319 37 -400 305 -667 125 -124
172 -178 210 -242 56 -96 45 -92 214 -67 233 34 391 97 391 156 0 10 -14 46
-31 79 l-31 61 37 73 c30 59 37 84 39 136 1 60 -2 69 -47 141 l-48 76 -9 304
c-9 326 -10 337 -86 693 -39 185 -46 236 -46 322 2 142 56 618 218 1903 94
747 105 815 233 1430 104 496 152 871 155 1200 1 129 6 243 10 252 4 9 49 51
99 92 51 41 103 86 116 100 28 30 39 -5 -107 331 -164 377 -183 445 -226 795
-57 468 -76 721 -76 1027 0 201 15 531 25 542 2 1 79 -63 172 -144 268 -234
393 -322 518 -365 215 -74 459 -100 610 -66 81 19 256 102 365 173 151 99 259
197 765 693 292 286 419 401 589 533 208 162 291 235 442 389 224 229 272 305
261 419 -3 35 -12 68 -21 77 -20 21 -31 13 -201 -148 -77 -72 -159 -143 -182
-157 -24 -14 -102 -47 -174 -74 -258 -96 -346 -155 -639 -434 -102 -97 -214
-196 -250 -220 -152 -102 -762 -421 -850 -445 -25 -7 -82 -12 -126 -12 -106 0
-200 29 -310 96 -181 111 -612 421 -869 626 -150 120 -265 197 -362 243 l-68
32 -346 5 -346 5 -85 42 c-89 45 -127 79 -173 158 -27 45 -27 46 -15 128 8 56
11 194 8 442 -5 430 0 409 -143 655 -222 380 -249 405 -465 416 -87 5 -102 2
-185 -26z"/>
</g>
</svg>
